<svg version="1.1" xmlns="http://www.w3.org/2000/svg" xmlns:xlink="http://www.w3.org/1999/xlink" role="img" width="127" height="90" viewbox="0 0 127 90"><title>X3D</title><desc>Generated by logo.svg, https://github.com/bubkoo/logo.svg</desc><path fill="#2b68a7" d="M-2.14 70.35L-1.56 67.66L-1.30 67.66Q0.62 67.66 2.22 66.67Q3.82 65.68 6.25 63.06L20.39 47.63L13.54 30.61Q12.84 28.75 11.59 28.05Q10.34 27.34 8.55 27.34L7.72 27.34L8.30 24.66L25.64 24.66L25.06 27.34L23.59 27.34Q20.58 27.34 20.58 29.14Q20.58 29.78 20.90 30.70Q21.22 31.63 21.74 32.98L25.38 42.26L33.38 33.10Q34.34 32.02 35.08 30.90Q35.82 29.78 35.82 28.94Q35.82 27.34 32.74 27.34L32.55 27.34L33.13 24.66L47.14 24.66L46.57 27.34L45.99 27.34Q44.14 27.34 42.66 28.43Q41.19 29.52 38.76 32.14L26.66 45.52L34.34 64.27Q35.18 66.26 36.36 66.96Q37.54 67.66 38.76 67.66L39.59 67.66L39.02 70.35L21.74 70.35L22.31 67.66L23.02 67.66Q24.94 67.66 26.02 67.02Q27.11 66.38 27.11 65.42Q27.11 64.53 26.86 63.66Q26.60 62.80 25.90 61.01L21.74 50.83L12.20 61.46Q11.11 62.67 10.38 63.86Q9.64 65.04 9.64 65.94Q9.64 66.83 10.47 67.25Q11.30 67.66 13.42 67.66L13.61 67.66L13.03 70.35L-2.14 70.35ZM55.46 70.99Q50.92 70.99 48.17 70.03Q45.42 69.07 44.23 67.54Q43.05 66 43.05 64.27Q43.05 62.03 44.49 60.78Q45.93 59.54 47.91 59.54Q47.91 61.52 48.71 63.31Q49.51 65.10 51.27 66.29Q53.03 67.47 55.91 67.47Q58.73 67.47 61.13 66.26Q63.53 65.04 64.94 62.64Q66.34 60.24 66.34 56.66Q66.34 52.69 63.98 50.51Q61.61 48.34 57.32 48.34L54.57 48.34L55.21 45.07L57.26 45.07Q60.84 45.07 63.66 43.57Q66.47 42.06 68.10 39.38Q69.74 36.69 69.74 33.04Q69.74 30.48 68.42 28.85Q67.11 27.22 64.30 27.22Q61.42 27.22 59.59 28.56Q57.77 29.90 56.78 32.08Q55.78 34.26 55.21 36.75Q53.22 36.75 51.85 35.89Q50.47 35.02 50.47 32.66Q50.47 30.03 52.36 28.08Q54.25 26.13 57.45 25.07Q60.65 24.02 64.55 24.02Q69.86 24.02 73.10 26.42Q76.33 28.82 76.33 33.17Q76.33 36.18 74.89 38.86Q73.45 41.55 70.60 43.54Q67.75 45.52 63.46 46.29Q67.88 46.80 70.47 49.30Q73.06 51.79 73.06 55.95Q73.06 60.18 71.46 63.09Q69.86 66 67.24 67.73Q64.62 69.46 61.54 70.22Q58.47 70.99 55.46 70.99ZM77.67 70.35L78.18 67.66L79.02 67.66Q81.19 67.66 82.92 66.86Q84.65 66.06 85.29 63.06L91.94 31.70Q92.07 31.25 92.14 30.77Q92.20 30.29 92.20 29.90Q92.20 28.18 90.76 27.76Q89.32 27.34 87.59 27.34L86.76 27.34L87.34 24.66L105.26 24.66Q113.90 24.66 118.66 29.10Q123.43 33.55 123.43 42.06Q123.43 47.76 121.77 52.88Q120.10 58 116.84 61.94Q113.58 65.87 108.81 68.11Q104.04 70.35 97.83 70.35L77.67 70.35M90.86 67.09L96.42 67.09Q102.70 67.09 107.21 63.79Q111.72 60.50 114.09 54.70Q116.46 48.91 116.46 41.36Q116.46 34.38 113.16 31.12Q109.86 27.86 104.30 27.86L99.24 27.86L90.86 67.09Z"></path></svg>